<svg xmlns="http://www.w3.org/2000/svg" viewBox="0 0 1905.5 1759.3" width="545" height="503">
<line x1="0" y1="481.9" x2="1905.5" y2="481.9" stroke="#8f8f8f" stroke-width="3" stroke-opacity="0.55"/>
<text x="21" y="467.9" fill="#8f8f8f" font-family="system-ui, -apple-system, 'Segoe UI', sans-serif" font-size="33.4" text-anchor="start" fill-opacity="0.8">xHeight</text>
<line x1="0" y1="181.9" x2="1905.5" y2="181.9" stroke="#8f8f8f" stroke-width="3" stroke-opacity="0.55"/>
<text x="21" y="167.9" fill="#8f8f8f" font-family="system-ui, -apple-system, 'Segoe UI', sans-serif" font-size="33.4" text-anchor="start" fill-opacity="0.8">capHeight</text>
<line x1="0" y1="1459.9" x2="1905.5" y2="1459.9" stroke="#5f5f5f" stroke-width="4.1"/>
<text x="21" y="1445.9" fill="#5f5f5f" font-family="system-ui, -apple-system, 'Segoe UI', sans-serif" font-size="33.4" text-anchor="start" fill-opacity="0.85">baseline</text>
<line x1="141.5" y1="0" x2="141.5" y2="1559.9" stroke="#8f8f8f" stroke-width="3" stroke-dasharray="7.4 11.1" stroke-opacity="0.5"/>
<line x1="1765.5" y1="0" x2="1765.5" y2="1559.9" stroke="#8f8f8f" stroke-width="3" stroke-dasharray="7.4 11.1" stroke-opacity="0.5"/>
<line x1="0" y1="190.9" x2="1905.5" y2="190.9" stroke="#3d7ea6" stroke-width="4.1" stroke-dasharray="26 18.6"/>
<text x="1884.5" y="243.4" fill="#3d7ea6" font-family="system-ui, -apple-system, 'Segoe UI', sans-serif" font-size="37.1" text-anchor="end">headline</text>
<g transform="translate(141.5,1459.9) scale(1,-1)"><path d="M-29.5 1124 -41.5 1269H1652L1664 1124ZM104 540V565.5C104 815.825 227.5 936.5 452 936.5C511 936.5 560 930.352 605 916.5L617 764.5C576.688 775.5 538.336 781.5 494.533 781.5C368.178 781.5 298 715.54 298 564.207V546.002C298 387.992 367.434 328.5 498.772 328.5C631.395 328.5 704.471 387.336 727.5 495L736 327.5H712.5C680.634 230.911 592 169 445 169C227.947 169 104 287.319 104 540ZM1521 562.5V540.613C1521 285.191 1406.73 169 1179.7 169C1123.31 169 1069.92 176.5 1030.5 191.5L1018.5 346C1057.69 332 1101.86 324 1145.51 324C1265.97 324 1326 388.693 1326 541.528V557.726C1326 707.71 1266.02 777 1134.18 777C1011.15 777 941.204 719.614 907.5 609.5L900 774H922.5C959.309 873.708 1049.79 937.5 1191.04 937.5C1408.67 937.5 1521 805 1521 562.5ZM912.5 1175.25V0.25H722.5V1175.25Z" fill="#7d7d7d" fill-opacity="0.38" fill-rule="nonzero" stroke="#4a4a4a" stroke-width="3.5"/></g>
<circle cx="1498.5" cy="221.9" r="15.7" fill="none" stroke="#c14a2e" stroke-width="4.9"/><line x1="1467" y1="221.9" x2="1530" y2="221.9" stroke="#c14a2e" stroke-width="4.9"/><line x1="1498.5" y1="190.5" x2="1498.5" y2="253.4" stroke="#c14a2e" stroke-width="4.9"/>
<text x="1540.5" y="187" fill="#c14a2e" font-family="system-ui, -apple-system, 'Segoe UI', sans-serif" font-size="40.9" text-anchor="start">top (1357, 1238)</text>
<circle cx="953.5" cy="1436.9" r="15.7" fill="none" stroke="#c14a2e" stroke-width="4.9"/><line x1="922" y1="1436.9" x2="985" y2="1436.9" stroke="#c14a2e" stroke-width="4.9"/><line x1="953.5" y1="1405.5" x2="953.5" y2="1468.4" stroke="#c14a2e" stroke-width="4.9"/>
<text x="995.5" y="1402" fill="#c14a2e" font-family="system-ui, -apple-system, 'Segoe UI', sans-serif" font-size="40.9" text-anchor="start">bottom (812, 23)</text>
<text x="21" y="56" fill="#6b6b6b" font-family="system-ui, -apple-system, 'Segoe UI', sans-serif" font-size="40.9" text-anchor="start">Ka.dv — Anek Devanagari Medium</text>
<text x="21" y="1612.4" fill="#6b6b6b" font-family="ui-monospace, 'SF Mono', Menlo, Consolas, monospace" font-size="36.7"># Devanagari consonant KA: top anchor sits on the headline (shirorekha),</text>
<text x="21" y="1664.9" fill="#6b6b6b" font-family="ui-monospace, 'SF Mono', Menlo, Consolas, monospace" font-size="36.7"># just left of its right end; bottom anchor centred under the letter.</text>
<text x="21" y="1717.3" fill="#6b6b6b" font-family="ui-monospace, 'SF Mono', Menlo, Consolas, monospace" font-size="36.7">Ka.dv = top (outline.right-298 box.top-31), bottom (width.center box.bottom+23)</text>
</svg>
