<svg xmlns="http://www.w3.org/2000/svg" viewBox="0 0 810.9 788" width="518" height="503">
<line x1="0" y1="92.7" x2="810.9" y2="92.7" stroke="#8f8f8f" stroke-width="1.3" stroke-opacity="0.55"/>
<text x="9.4" y="86.5" fill="#8f8f8f" font-family="system-ui, -apple-system, 'Segoe UI', sans-serif" font-size="15" text-anchor="start" fill-opacity="0.8">xHeight</text>
<line x1="0" y1="648.7" x2="810.9" y2="648.7" stroke="#5f5f5f" stroke-width="1.8"/>
<text x="9.4" y="642.5" fill="#5f5f5f" font-family="system-ui, -apple-system, 'Segoe UI', sans-serif" font-size="15" text-anchor="start" fill-opacity="0.85">baseline</text>
<line x1="50" y1="0" x2="50" y2="698.7" stroke="#8f8f8f" stroke-width="1.3" stroke-dasharray="3.3 5" stroke-opacity="0.5"/>
<line x1="650" y1="0" x2="650" y2="698.7" stroke="#8f8f8f" stroke-width="1.3" stroke-dasharray="3.3 5" stroke-opacity="0.5"/>
<line x1="0" y1="92.7" x2="810.9" y2="92.7" stroke="#3d7ea6" stroke-width="1.8" stroke-dasharray="11.6 8.3"/>
<text x="801.5" y="116.2" fill="#3d7ea6" font-family="system-ui, -apple-system, 'Segoe UI', sans-serif" font-size="16.6" text-anchor="end">xHeight</text>
<g transform="translate(50,648.7) scale(1,-1)"><path d="M76 0H165V190C165 261 207 292 257 292L265 340L157 394C157 446 208 484 290 484C368 484 430 449 430 360V0H519V369C519 502 413 558 291 558C150 558 66 481 66 399V366L176 324L175 321C117 306 76 274 76 190Z" fill="#7d7d7d" fill-opacity="0.38" fill-rule="nonzero" stroke="#4a4a4a" stroke-width="1.6"/></g>
<circle cx="341" cy="90.7" r="7" fill="none" stroke="#c14a2e" stroke-width="2.2"/><line x1="326.9" y1="90.7" x2="355.1" y2="90.7" stroke="#c14a2e" stroke-width="2.2"/><line x1="341" y1="76.6" x2="341" y2="104.8" stroke="#c14a2e" stroke-width="2.2"/>
<text x="359.8" y="75.1" fill="#c14a2e" font-family="system-ui, -apple-system, 'Segoe UI', sans-serif" font-size="18.3" text-anchor="start">top (291, 558)</text>
<circle cx="348" cy="648.7" r="7" fill="none" stroke="#c14a2e" stroke-width="2.2"/><line x1="333.9" y1="648.7" x2="362.1" y2="648.7" stroke="#c14a2e" stroke-width="2.2"/><line x1="348" y1="634.6" x2="348" y2="662.8" stroke="#c14a2e" stroke-width="2.2"/>
<text x="366.8" y="633.1" fill="#c14a2e" font-family="system-ui, -apple-system, 'Segoe UI', sans-serif" font-size="18.3" text-anchor="start">bottom (298, 0)</text>
<text x="9.4" y="25.1" fill="#6b6b6b" font-family="system-ui, -apple-system, 'Segoe UI', sans-serif" font-size="18.3" text-anchor="start">koKai-thai — Noto Sans Thai Regular</text>
<text x="9.4" y="722.2" fill="#6b6b6b" font-family="ui-monospace, 'SF Mono', Menlo, Consolas, monospace" font-size="16.4"># Thai consonant KO KAI: top anchor centred on the ink at its top edge,</text>
<text x="9.4" y="745.7" fill="#6b6b6b" font-family="ui-monospace, 'SF Mono', Menlo, Consolas, monospace" font-size="16.4"># bottom anchor centred on the ink at the baseline.</text>
<text x="9.4" y="769.2" fill="#6b6b6b" font-family="ui-monospace, 'SF Mono', Menlo, Consolas, monospace" font-size="16.4">koKai-thai = top (outline.center@top box.top), bottom (outline.center@bottom 0)</text>
</svg>
